# xmcd
#
# Track frame offsets:
#	150
#	13522
#	24764
#	44211
#	63733
#	105270
#	121126
#	144259
#	166739
#	183720
#	202386
#	220245
#	233547
#	242895
#	261306
#	283269
#	299115
#	312250
#	330056
#
# Disc length: 4449 seconds
#
# Revision: 0
# Processed by: cddbd v1.5.1PL2 Copyright (c) Steve Scherf et al.
# Submitted via: EasyCDDAExtractor 8.1.2.3
#
DISCID=1e115f13
DTITLE=Various Artist - Fractures ouvertes
DYEAR=2005
DGENRE=Rap
TTITLE0=Rda - Intro Fractures Ouvertes
TTITLE1=Iron Sy - Fresstyle Dj Rimk Freestyle 1
TTITLE2=Sake feat Jack Tk - assoiffés saké  jack tk
TTITLE3=Iron Sy - Instinct Criminels
TTITLE4=Kartier Federal Sakage Kronik - KF Feat SakagaKro
TTITLE5=Iron Sy - je viens de la
TTITLE6=Kartier Federal - Kartier federal - plus master
TTITLE7=Saké - Tout est ma faute
TTITLE8=Indelebile feat Medis (v2m) - Trop de fachos fachés
TTITLE9=94 Sekt - En Scelle
TTITLE10=Kartier Federal - J'Peut Pas Dire
TTITLE11=Opak Feat Sake - Du Chemin a Faire
TTITLE12=l'skadrille - freestyle
TTITLE13=lorenzo and denzel - nos penitenciers
TTITLE14=Sud Conscient Feat Mr C - environement meurtrier
TTITLE15=Bouchees Doubles - Le debrouillard
TTITLE16=Iron Sy - Freestyle Dj Rimk 2
TTITLE17=La Sanktion - Rap Independant
TTITLE18=Dj Rimk - Outro
EXTD=
EXTT0=
EXTT1=
EXTT2=
EXTT3=
EXTT4=
EXTT5=
EXTT6=
EXTT7=
EXTT8=
EXTT9=
EXTT10=
EXTT11=
EXTT12=
EXTT13=
EXTT14=
EXTT15=
EXTT16=
EXTT17=
EXTT18=
PLAYORDER=
